<mxfile host="app.diagrams.net" modified="2024-06-22T16:15:04.798Z" agent="Mozilla/5.0 (Macintosh; Intel Mac OS X 10_15_7) AppleWebKit/605.1.15 (KHTML, like Gecko) Version/17.0 Safari/605.1.15" etag="jlUt1oibGg-o-V6fs5_i" version="24.6.2" type="github">
  <diagram id="C5RBs43oDa-KdzZeNtuy" name="Page-1">
    <mxGraphModel dx="2022" dy="768" grid="1" gridSize="10" guides="1" tooltips="1" connect="1" arrows="1" fold="1" page="1" pageScale="1" pageWidth="827" pageHeight="1169" math="0" shadow="0">
      <root>
        <mxCell id="WIyWlLk6GJQsqaUBKTNV-0" />
        <mxCell id="WIyWlLk6GJQsqaUBKTNV-1" parent="WIyWlLk6GJQsqaUBKTNV-0" />
        <mxCell id="WIyWlLk6GJQsqaUBKTNV-2" value="" style="rounded=0;html=1;jettySize=auto;orthogonalLoop=1;fontSize=11;endArrow=block;endFill=0;endSize=8;strokeWidth=1;shadow=0;labelBackgroundColor=none;edgeStyle=orthogonalEdgeStyle;" parent="WIyWlLk6GJQsqaUBKTNV-1" source="WIyWlLk6GJQsqaUBKTNV-3" target="WIyWlLk6GJQsqaUBKTNV-6" edge="1">
          <mxGeometry relative="1" as="geometry" />
        </mxCell>
        <mxCell id="WIyWlLk6GJQsqaUBKTNV-3" value="Pantalla principal" style="rounded=1;whiteSpace=wrap;html=1;fontSize=12;glass=0;strokeWidth=1;shadow=0;" parent="WIyWlLk6GJQsqaUBKTNV-1" vertex="1">
          <mxGeometry x="380" y="150" width="120" height="40" as="geometry" />
        </mxCell>
        <mxCell id="WIyWlLk6GJQsqaUBKTNV-5" value="Iniciar pruebas de precisi贸n" style="edgeStyle=orthogonalEdgeStyle;rounded=0;html=1;jettySize=auto;orthogonalLoop=1;fontSize=11;endArrow=block;endFill=0;endSize=8;strokeWidth=1;shadow=0;labelBackgroundColor=none;" parent="WIyWlLk6GJQsqaUBKTNV-1" source="WIyWlLk6GJQsqaUBKTNV-6" target="WIyWlLk6GJQsqaUBKTNV-7" edge="1">
          <mxGeometry x="-0.0476" y="-10" relative="1" as="geometry">
            <mxPoint as="offset" />
          </mxGeometry>
        </mxCell>
        <mxCell id="eNe1x3plQGJJe2NbH0Jp-2" style="edgeStyle=orthogonalEdgeStyle;rounded=0;orthogonalLoop=1;jettySize=auto;html=1;" edge="1" parent="WIyWlLk6GJQsqaUBKTNV-1" target="eNe1x3plQGJJe2NbH0Jp-1">
          <mxGeometry relative="1" as="geometry">
            <mxPoint x="490" y="320" as="sourcePoint" />
            <mxPoint x="890" y="433" as="targetPoint" />
          </mxGeometry>
        </mxCell>
        <mxCell id="eNe1x3plQGJJe2NbH0Jp-3" value="Mostrar mapa de calor" style="edgeLabel;html=1;align=center;verticalAlign=middle;resizable=0;points=[];" vertex="1" connectable="0" parent="eNe1x3plQGJJe2NbH0Jp-2">
          <mxGeometry x="-0.2908" y="5" relative="1" as="geometry">
            <mxPoint y="-3" as="offset" />
          </mxGeometry>
        </mxCell>
        <mxCell id="eNe1x3plQGJJe2NbH0Jp-38" style="edgeStyle=orthogonalEdgeStyle;rounded=0;orthogonalLoop=1;jettySize=auto;html=1;entryX=0.5;entryY=0;entryDx=0;entryDy=0;exitX=0.5;exitY=1;exitDx=0;exitDy=0;" edge="1" parent="WIyWlLk6GJQsqaUBKTNV-1" source="WIyWlLk6GJQsqaUBKTNV-6" target="eNe1x3plQGJJe2NbH0Jp-37">
          <mxGeometry relative="1" as="geometry">
            <mxPoint x="440" y="364" as="sourcePoint" />
            <mxPoint x="290" y="414" as="targetPoint" />
            <Array as="points">
              <mxPoint x="440" y="364" />
              <mxPoint x="290" y="364" />
            </Array>
          </mxGeometry>
        </mxCell>
        <mxCell id="eNe1x3plQGJJe2NbH0Jp-41" style="edgeStyle=orthogonalEdgeStyle;rounded=0;orthogonalLoop=1;jettySize=auto;html=1;entryX=0.5;entryY=0;entryDx=0;entryDy=0;" edge="1" parent="WIyWlLk6GJQsqaUBKTNV-1">
          <mxGeometry relative="1" as="geometry">
            <mxPoint x="440" y="359" as="sourcePoint" />
            <mxPoint x="720" y="409" as="targetPoint" />
            <Array as="points">
              <mxPoint x="440" y="364" />
              <mxPoint x="720" y="364" />
            </Array>
          </mxGeometry>
        </mxCell>
        <mxCell id="eNe1x3plQGJJe2NbH0Jp-49" style="edgeStyle=orthogonalEdgeStyle;rounded=0;orthogonalLoop=1;jettySize=auto;html=1;" edge="1" parent="WIyWlLk6GJQsqaUBKTNV-1" source="WIyWlLk6GJQsqaUBKTNV-6" target="eNe1x3plQGJJe2NbH0Jp-47">
          <mxGeometry relative="1" as="geometry" />
        </mxCell>
        <mxCell id="WIyWlLk6GJQsqaUBKTNV-6" value="Acci贸n" style="rhombus;whiteSpace=wrap;html=1;shadow=0;fontFamily=Helvetica;fontSize=12;align=center;strokeWidth=1;spacing=6;spacingTop=-4;" parent="WIyWlLk6GJQsqaUBKTNV-1" vertex="1">
          <mxGeometry x="390" y="280" width="100" height="80" as="geometry" />
        </mxCell>
        <mxCell id="eNe1x3plQGJJe2NbH0Jp-5" style="edgeStyle=orthogonalEdgeStyle;rounded=0;orthogonalLoop=1;jettySize=auto;html=1;entryX=0.5;entryY=0;entryDx=0;entryDy=0;" edge="1" parent="WIyWlLk6GJQsqaUBKTNV-1" source="WIyWlLk6GJQsqaUBKTNV-7" target="eNe1x3plQGJJe2NbH0Jp-4">
          <mxGeometry relative="1" as="geometry" />
        </mxCell>
        <mxCell id="WIyWlLk6GJQsqaUBKTNV-7" value="Comprobar calibraci贸n" style="rounded=1;whiteSpace=wrap;html=1;fontSize=12;glass=0;strokeWidth=1;shadow=0;" parent="WIyWlLk6GJQsqaUBKTNV-1" vertex="1">
          <mxGeometry x="20" y="410" width="120" height="40" as="geometry" />
        </mxCell>
        <mxCell id="eNe1x3plQGJJe2NbH0Jp-0" value="Calibrar el sistema" style="rounded=1;whiteSpace=wrap;html=1;fontSize=12;glass=0;strokeWidth=1;shadow=0;" vertex="1" parent="WIyWlLk6GJQsqaUBKTNV-1">
          <mxGeometry x="660" y="410" width="120" height="40" as="geometry" />
        </mxCell>
        <mxCell id="eNe1x3plQGJJe2NbH0Jp-19" value="" style="edgeStyle=orthogonalEdgeStyle;rounded=0;orthogonalLoop=1;jettySize=auto;html=1;" edge="1" parent="WIyWlLk6GJQsqaUBKTNV-1" source="eNe1x3plQGJJe2NbH0Jp-1" target="eNe1x3plQGJJe2NbH0Jp-18">
          <mxGeometry relative="1" as="geometry" />
        </mxCell>
        <mxCell id="eNe1x3plQGJJe2NbH0Jp-1" value="comprobar registros" style="rounded=1;whiteSpace=wrap;html=1;fontSize=12;glass=0;strokeWidth=1;shadow=0;" vertex="1" parent="WIyWlLk6GJQsqaUBKTNV-1">
          <mxGeometry x="830" y="420" width="120" height="40" as="geometry" />
        </mxCell>
        <mxCell id="eNe1x3plQGJJe2NbH0Jp-6" style="edgeStyle=orthogonalEdgeStyle;rounded=0;orthogonalLoop=1;jettySize=auto;html=1;" edge="1" parent="WIyWlLk6GJQsqaUBKTNV-1" source="eNe1x3plQGJJe2NbH0Jp-4" target="eNe1x3plQGJJe2NbH0Jp-7">
          <mxGeometry relative="1" as="geometry">
            <mxPoint x="-90" y="640" as="targetPoint" />
            <Array as="points">
              <mxPoint x="80" y="670" />
              <mxPoint x="80" y="670" />
            </Array>
          </mxGeometry>
        </mxCell>
        <mxCell id="eNe1x3plQGJJe2NbH0Jp-13" style="edgeStyle=orthogonalEdgeStyle;rounded=0;orthogonalLoop=1;jettySize=auto;html=1;" edge="1" parent="WIyWlLk6GJQsqaUBKTNV-1" source="eNe1x3plQGJJe2NbH0Jp-4">
          <mxGeometry relative="1" as="geometry">
            <mxPoint x="-69.99999999999977" y="590" as="targetPoint" />
          </mxGeometry>
        </mxCell>
        <mxCell id="eNe1x3plQGJJe2NbH0Jp-4" value="sistema calibrado" style="rhombus;whiteSpace=wrap;html=1;shadow=0;fontFamily=Helvetica;fontSize=12;align=center;strokeWidth=1;spacing=6;spacingTop=-4;" vertex="1" parent="WIyWlLk6GJQsqaUBKTNV-1">
          <mxGeometry x="30" y="550" width="100" height="80" as="geometry" />
        </mxCell>
        <mxCell id="eNe1x3plQGJJe2NbH0Jp-31" value="" style="edgeStyle=orthogonalEdgeStyle;rounded=0;orthogonalLoop=1;jettySize=auto;html=1;" edge="1" parent="WIyWlLk6GJQsqaUBKTNV-1" source="eNe1x3plQGJJe2NbH0Jp-7" target="eNe1x3plQGJJe2NbH0Jp-29">
          <mxGeometry relative="1" as="geometry" />
        </mxCell>
        <mxCell id="eNe1x3plQGJJe2NbH0Jp-7" value="Realizar test de precisi贸n&amp;nbsp;" style="rounded=1;whiteSpace=wrap;html=1;fontSize=12;glass=0;strokeWidth=1;shadow=0;" vertex="1" parent="WIyWlLk6GJQsqaUBKTNV-1">
          <mxGeometry x="20" y="710" width="120" height="40" as="geometry" />
        </mxCell>
        <mxCell id="eNe1x3plQGJJe2NbH0Jp-8" value="Si" style="text;html=1;align=center;verticalAlign=middle;resizable=0;points=[];autosize=1;strokeColor=none;fillColor=none;" vertex="1" parent="WIyWlLk6GJQsqaUBKTNV-1">
          <mxGeometry x="80" y="670" width="30" height="30" as="geometry" />
        </mxCell>
        <mxCell id="eNe1x3plQGJJe2NbH0Jp-12" value="Mostrar alerta" style="rounded=1;whiteSpace=wrap;html=1;fontSize=12;glass=0;strokeWidth=1;shadow=0;" vertex="1" parent="WIyWlLk6GJQsqaUBKTNV-1">
          <mxGeometry x="-150" y="570" width="120" height="40" as="geometry" />
        </mxCell>
        <mxCell id="eNe1x3plQGJJe2NbH0Jp-14" style="edgeStyle=orthogonalEdgeStyle;rounded=0;orthogonalLoop=1;jettySize=auto;html=1;" edge="1" parent="WIyWlLk6GJQsqaUBKTNV-1" target="WIyWlLk6GJQsqaUBKTNV-3">
          <mxGeometry relative="1" as="geometry">
            <mxPoint x="-89.99999999999977" y="570" as="sourcePoint" />
            <mxPoint x="330" y="179.0344827586207" as="targetPoint" />
            <Array as="points">
              <mxPoint x="-90" y="190" />
            </Array>
          </mxGeometry>
        </mxCell>
        <mxCell id="eNe1x3plQGJJe2NbH0Jp-16" value="" style="edgeStyle=orthogonalEdgeStyle;rounded=0;orthogonalLoop=1;jettySize=auto;html=1;" edge="1" parent="WIyWlLk6GJQsqaUBKTNV-1" source="eNe1x3plQGJJe2NbH0Jp-15" target="WIyWlLk6GJQsqaUBKTNV-3">
          <mxGeometry relative="1" as="geometry" />
        </mxCell>
        <mxCell id="eNe1x3plQGJJe2NbH0Jp-15" value="Inicio" style="rounded=1;whiteSpace=wrap;html=1;fontSize=12;glass=0;strokeWidth=1;shadow=0;" vertex="1" parent="WIyWlLk6GJQsqaUBKTNV-1">
          <mxGeometry x="380" y="40" width="120" height="40" as="geometry" />
        </mxCell>
        <mxCell id="eNe1x3plQGJJe2NbH0Jp-17" value="No" style="text;html=1;align=center;verticalAlign=middle;resizable=0;points=[];autosize=1;strokeColor=none;fillColor=none;" vertex="1" parent="WIyWlLk6GJQsqaUBKTNV-1">
          <mxGeometry x="-34" y="561" width="40" height="30" as="geometry" />
        </mxCell>
        <mxCell id="eNe1x3plQGJJe2NbH0Jp-21" style="edgeStyle=orthogonalEdgeStyle;rounded=0;orthogonalLoop=1;jettySize=auto;html=1;entryX=0;entryY=0.5;entryDx=0;entryDy=0;" edge="1" parent="WIyWlLk6GJQsqaUBKTNV-1" source="eNe1x3plQGJJe2NbH0Jp-18" target="eNe1x3plQGJJe2NbH0Jp-20">
          <mxGeometry relative="1" as="geometry" />
        </mxCell>
        <mxCell id="eNe1x3plQGJJe2NbH0Jp-26" style="edgeStyle=orthogonalEdgeStyle;rounded=0;orthogonalLoop=1;jettySize=auto;html=1;" edge="1" parent="WIyWlLk6GJQsqaUBKTNV-1" source="eNe1x3plQGJJe2NbH0Jp-18" target="eNe1x3plQGJJe2NbH0Jp-24">
          <mxGeometry relative="1" as="geometry" />
        </mxCell>
        <mxCell id="eNe1x3plQGJJe2NbH0Jp-18" value="Puntos inferidos" style="rhombus;whiteSpace=wrap;html=1;shadow=0;fontFamily=Helvetica;fontSize=12;align=center;strokeWidth=1;spacing=6;spacingTop=-4;" vertex="1" parent="WIyWlLk6GJQsqaUBKTNV-1">
          <mxGeometry x="840" y="549" width="100" height="80" as="geometry" />
        </mxCell>
        <mxCell id="eNe1x3plQGJJe2NbH0Jp-23" style="edgeStyle=orthogonalEdgeStyle;rounded=0;orthogonalLoop=1;jettySize=auto;html=1;" edge="1" parent="WIyWlLk6GJQsqaUBKTNV-1" target="WIyWlLk6GJQsqaUBKTNV-3">
          <mxGeometry relative="1" as="geometry">
            <mxPoint x="1090" y="571" as="sourcePoint" />
            <mxPoint x="485.48" y="180.51999999999998" as="targetPoint" />
            <Array as="points">
              <mxPoint x="1090" y="190" />
            </Array>
          </mxGeometry>
        </mxCell>
        <mxCell id="eNe1x3plQGJJe2NbH0Jp-20" value="Mostrar alerta" style="rounded=1;whiteSpace=wrap;html=1;fontSize=12;glass=0;strokeWidth=1;shadow=0;" vertex="1" parent="WIyWlLk6GJQsqaUBKTNV-1">
          <mxGeometry x="1030" y="569" width="120" height="40" as="geometry" />
        </mxCell>
        <mxCell id="eNe1x3plQGJJe2NbH0Jp-22" value="No hay" style="text;html=1;align=center;verticalAlign=middle;resizable=0;points=[];autosize=1;strokeColor=none;fillColor=none;" vertex="1" parent="WIyWlLk6GJQsqaUBKTNV-1">
          <mxGeometry x="950" y="563" width="60" height="30" as="geometry" />
        </mxCell>
        <mxCell id="eNe1x3plQGJJe2NbH0Jp-33" style="edgeStyle=orthogonalEdgeStyle;rounded=0;orthogonalLoop=1;jettySize=auto;html=1;exitX=1;exitY=0.5;exitDx=0;exitDy=0;" edge="1" parent="WIyWlLk6GJQsqaUBKTNV-1" source="eNe1x3plQGJJe2NbH0Jp-24" target="WIyWlLk6GJQsqaUBKTNV-3">
          <mxGeometry relative="1" as="geometry">
            <mxPoint x="950" y="741.0344827586207" as="sourcePoint" />
            <mxPoint x="500" y="171" as="targetPoint" />
            <Array as="points">
              <mxPoint x="1200" y="730" />
              <mxPoint x="1200" y="180" />
            </Array>
          </mxGeometry>
        </mxCell>
        <mxCell id="eNe1x3plQGJJe2NbH0Jp-24" value="Mostrar mapa de calor" style="rounded=1;whiteSpace=wrap;html=1;fontSize=12;glass=0;strokeWidth=1;shadow=0;" vertex="1" parent="WIyWlLk6GJQsqaUBKTNV-1">
          <mxGeometry x="830" y="710" width="120" height="40" as="geometry" />
        </mxCell>
        <mxCell id="eNe1x3plQGJJe2NbH0Jp-27" value="Hay registros&amp;nbsp;&lt;div&gt;de puntos inferidos&lt;/div&gt;" style="text;html=1;align=center;verticalAlign=middle;resizable=0;points=[];autosize=1;strokeColor=none;fillColor=none;" vertex="1" parent="WIyWlLk6GJQsqaUBKTNV-1">
          <mxGeometry x="887" y="643" width="120" height="40" as="geometry" />
        </mxCell>
        <mxCell id="eNe1x3plQGJJe2NbH0Jp-32" style="edgeStyle=orthogonalEdgeStyle;rounded=0;orthogonalLoop=1;jettySize=auto;html=1;" edge="1" parent="WIyWlLk6GJQsqaUBKTNV-1" source="eNe1x3plQGJJe2NbH0Jp-28" target="WIyWlLk6GJQsqaUBKTNV-3">
          <mxGeometry relative="1" as="geometry">
            <Array as="points">
              <mxPoint x="-200" y="890" />
              <mxPoint x="-200" y="180" />
            </Array>
          </mxGeometry>
        </mxCell>
        <mxCell id="eNe1x3plQGJJe2NbH0Jp-28" value="Exportar CSV" style="rounded=1;whiteSpace=wrap;html=1;fontSize=12;glass=0;strokeWidth=1;shadow=0;" vertex="1" parent="WIyWlLk6GJQsqaUBKTNV-1">
          <mxGeometry x="20" y="870" width="120" height="40" as="geometry" />
        </mxCell>
        <mxCell id="eNe1x3plQGJJe2NbH0Jp-30" style="edgeStyle=orthogonalEdgeStyle;rounded=0;orthogonalLoop=1;jettySize=auto;html=1;" edge="1" parent="WIyWlLk6GJQsqaUBKTNV-1" source="eNe1x3plQGJJe2NbH0Jp-29" target="eNe1x3plQGJJe2NbH0Jp-28">
          <mxGeometry relative="1" as="geometry" />
        </mxCell>
        <mxCell id="eNe1x3plQGJJe2NbH0Jp-29" value="Registrar en BD" style="rounded=1;whiteSpace=wrap;html=1;fontSize=12;glass=0;strokeWidth=1;shadow=0;" vertex="1" parent="WIyWlLk6GJQsqaUBKTNV-1">
          <mxGeometry x="20" y="800" width="120" height="40" as="geometry" />
        </mxCell>
        <mxCell id="eNe1x3plQGJJe2NbH0Jp-34" style="edgeStyle=orthogonalEdgeStyle;rounded=0;orthogonalLoop=1;jettySize=auto;html=1;" edge="1" parent="WIyWlLk6GJQsqaUBKTNV-1" source="eNe1x3plQGJJe2NbH0Jp-0" target="WIyWlLk6GJQsqaUBKTNV-3">
          <mxGeometry relative="1" as="geometry">
            <mxPoint x="720" y="453" as="sourcePoint" />
            <mxPoint x="500" y="160" as="targetPoint" />
            <Array as="points">
              <mxPoint x="720" y="767" />
              <mxPoint x="1290" y="767" />
              <mxPoint x="1290" y="170" />
            </Array>
          </mxGeometry>
        </mxCell>
        <mxCell id="eNe1x3plQGJJe2NbH0Jp-44" style="edgeStyle=orthogonalEdgeStyle;rounded=0;orthogonalLoop=1;jettySize=auto;html=1;entryX=0.5;entryY=0;entryDx=0;entryDy=0;" edge="1" parent="WIyWlLk6GJQsqaUBKTNV-1" source="eNe1x3plQGJJe2NbH0Jp-37" target="eNe1x3plQGJJe2NbH0Jp-42">
          <mxGeometry relative="1" as="geometry" />
        </mxCell>
        <mxCell id="eNe1x3plQGJJe2NbH0Jp-37" value="Controlar cursor" style="rounded=1;whiteSpace=wrap;html=1;fontSize=12;glass=0;strokeWidth=1;shadow=0;" vertex="1" parent="WIyWlLk6GJQsqaUBKTNV-1">
          <mxGeometry x="230" y="410" width="120" height="40" as="geometry" />
        </mxCell>
        <mxCell id="eNe1x3plQGJJe2NbH0Jp-39" value="Controlar el cursor" style="text;html=1;align=center;verticalAlign=middle;resizable=0;points=[];autosize=1;strokeColor=none;fillColor=none;" vertex="1" parent="WIyWlLk6GJQsqaUBKTNV-1">
          <mxGeometry x="280" y="330" width="120" height="30" as="geometry" />
        </mxCell>
        <mxCell id="eNe1x3plQGJJe2NbH0Jp-40" value="Calibrar el sistema" style="text;html=1;align=center;verticalAlign=middle;resizable=0;points=[];autosize=1;strokeColor=none;fillColor=none;" vertex="1" parent="WIyWlLk6GJQsqaUBKTNV-1">
          <mxGeometry x="530" y="338" width="120" height="30" as="geometry" />
        </mxCell>
        <mxCell id="eNe1x3plQGJJe2NbH0Jp-52" style="edgeStyle=orthogonalEdgeStyle;rounded=0;orthogonalLoop=1;jettySize=auto;html=1;entryX=0.5;entryY=0;entryDx=0;entryDy=0;" edge="1" parent="WIyWlLk6GJQsqaUBKTNV-1" source="eNe1x3plQGJJe2NbH0Jp-42" target="eNe1x3plQGJJe2NbH0Jp-51">
          <mxGeometry relative="1" as="geometry" />
        </mxCell>
        <mxCell id="eNe1x3plQGJJe2NbH0Jp-42" value="sistema calibrado" style="rhombus;whiteSpace=wrap;html=1;shadow=0;fontFamily=Helvetica;fontSize=12;align=center;strokeWidth=1;spacing=6;spacingTop=-4;" vertex="1" parent="WIyWlLk6GJQsqaUBKTNV-1">
          <mxGeometry x="240" y="549" width="100" height="80" as="geometry" />
        </mxCell>
        <mxCell id="eNe1x3plQGJJe2NbH0Jp-45" style="edgeStyle=orthogonalEdgeStyle;rounded=0;orthogonalLoop=1;jettySize=auto;html=1;" edge="1" parent="WIyWlLk6GJQsqaUBKTNV-1" source="eNe1x3plQGJJe2NbH0Jp-42" target="WIyWlLk6GJQsqaUBKTNV-3">
          <mxGeometry relative="1" as="geometry">
            <Array as="points">
              <mxPoint x="160" y="589" />
              <mxPoint x="160" y="940" />
              <mxPoint x="-250" y="940" />
              <mxPoint x="-250" y="170" />
            </Array>
          </mxGeometry>
        </mxCell>
        <mxCell id="eNe1x3plQGJJe2NbH0Jp-46" value="No" style="text;html=1;align=center;verticalAlign=middle;resizable=0;points=[];autosize=1;strokeColor=none;fillColor=none;" vertex="1" parent="WIyWlLk6GJQsqaUBKTNV-1">
          <mxGeometry x="200" y="555" width="40" height="30" as="geometry" />
        </mxCell>
        <mxCell id="eNe1x3plQGJJe2NbH0Jp-50" style="edgeStyle=orthogonalEdgeStyle;rounded=0;orthogonalLoop=1;jettySize=auto;html=1;" edge="1" parent="WIyWlLk6GJQsqaUBKTNV-1" source="eNe1x3plQGJJe2NbH0Jp-47" target="WIyWlLk6GJQsqaUBKTNV-3">
          <mxGeometry relative="1" as="geometry">
            <Array as="points">
              <mxPoint x="530" y="790" />
              <mxPoint x="1350" y="790" />
              <mxPoint x="1350" y="160" />
            </Array>
          </mxGeometry>
        </mxCell>
        <mxCell id="eNe1x3plQGJJe2NbH0Jp-47" value="Cambiar modo de control" style="rounded=1;whiteSpace=wrap;html=1;fontSize=12;glass=0;strokeWidth=1;shadow=0;" vertex="1" parent="WIyWlLk6GJQsqaUBKTNV-1">
          <mxGeometry x="470" y="410" width="120" height="40" as="geometry" />
        </mxCell>
        <mxCell id="eNe1x3plQGJJe2NbH0Jp-54" style="edgeStyle=orthogonalEdgeStyle;rounded=0;orthogonalLoop=1;jettySize=auto;html=1;" edge="1" parent="WIyWlLk6GJQsqaUBKTNV-1" source="eNe1x3plQGJJe2NbH0Jp-51" target="eNe1x3plQGJJe2NbH0Jp-53">
          <mxGeometry relative="1" as="geometry" />
        </mxCell>
        <mxCell id="eNe1x3plQGJJe2NbH0Jp-51" value="Comprobar facciones usuario" style="rounded=1;whiteSpace=wrap;html=1;fontSize=12;glass=0;strokeWidth=1;shadow=0;" vertex="1" parent="WIyWlLk6GJQsqaUBKTNV-1">
          <mxGeometry x="230" y="710" width="120" height="40" as="geometry" />
        </mxCell>
        <mxCell id="eNe1x3plQGJJe2NbH0Jp-59" style="edgeStyle=orthogonalEdgeStyle;rounded=0;orthogonalLoop=1;jettySize=auto;html=1;" edge="1" parent="WIyWlLk6GJQsqaUBKTNV-1" source="eNe1x3plQGJJe2NbH0Jp-53" target="eNe1x3plQGJJe2NbH0Jp-55">
          <mxGeometry relative="1" as="geometry">
            <Array as="points">
              <mxPoint x="175" y="880" />
            </Array>
          </mxGeometry>
        </mxCell>
        <mxCell id="eNe1x3plQGJJe2NbH0Jp-60" style="edgeStyle=orthogonalEdgeStyle;rounded=0;orthogonalLoop=1;jettySize=auto;html=1;entryX=0.5;entryY=0;entryDx=0;entryDy=0;" edge="1" parent="WIyWlLk6GJQsqaUBKTNV-1" source="eNe1x3plQGJJe2NbH0Jp-53" target="eNe1x3plQGJJe2NbH0Jp-57">
          <mxGeometry relative="1" as="geometry" />
        </mxCell>
        <mxCell id="eNe1x3plQGJJe2NbH0Jp-53" value="Acci贸n rat贸n" style="rhombus;whiteSpace=wrap;html=1;shadow=0;fontFamily=Helvetica;fontSize=12;align=center;strokeWidth=1;spacing=6;spacingTop=-4;" vertex="1" parent="WIyWlLk6GJQsqaUBKTNV-1">
          <mxGeometry x="330" y="840" width="100" height="80" as="geometry" />
        </mxCell>
        <mxCell id="eNe1x3plQGJJe2NbH0Jp-73" style="edgeStyle=orthogonalEdgeStyle;rounded=0;orthogonalLoop=1;jettySize=auto;html=1;" edge="1" parent="WIyWlLk6GJQsqaUBKTNV-1" source="eNe1x3plQGJJe2NbH0Jp-55" target="WIyWlLk6GJQsqaUBKTNV-3">
          <mxGeometry relative="1" as="geometry">
            <Array as="points">
              <mxPoint x="-310" y="1060" />
              <mxPoint x="-310" y="160" />
            </Array>
          </mxGeometry>
        </mxCell>
        <mxCell id="eNe1x3plQGJJe2NbH0Jp-55" value="Mover cursor" style="rounded=1;whiteSpace=wrap;html=1;fontSize=12;glass=0;strokeWidth=1;shadow=0;" vertex="1" parent="WIyWlLk6GJQsqaUBKTNV-1">
          <mxGeometry x="115" y="1040" width="120" height="40" as="geometry" />
        </mxCell>
        <mxCell id="eNe1x3plQGJJe2NbH0Jp-66" style="edgeStyle=orthogonalEdgeStyle;rounded=0;orthogonalLoop=1;jettySize=auto;html=1;" edge="1" parent="WIyWlLk6GJQsqaUBKTNV-1" source="eNe1x3plQGJJe2NbH0Jp-57" target="eNe1x3plQGJJe2NbH0Jp-65">
          <mxGeometry relative="1" as="geometry" />
        </mxCell>
        <mxCell id="eNe1x3plQGJJe2NbH0Jp-57" value="Hacer clic" style="rounded=1;whiteSpace=wrap;html=1;fontSize=12;glass=0;strokeWidth=1;shadow=0;" vertex="1" parent="WIyWlLk6GJQsqaUBKTNV-1">
          <mxGeometry x="535" y="1040" width="120" height="40" as="geometry" />
        </mxCell>
        <mxCell id="eNe1x3plQGJJe2NbH0Jp-61" value="Mover el cursor" style="text;html=1;align=center;verticalAlign=middle;resizable=0;points=[];autosize=1;strokeColor=none;fillColor=none;" vertex="1" parent="WIyWlLk6GJQsqaUBKTNV-1">
          <mxGeometry x="200" y="858" width="110" height="30" as="geometry" />
        </mxCell>
        <mxCell id="eNe1x3plQGJJe2NbH0Jp-64" value="Hacer clic" style="text;html=1;align=center;verticalAlign=middle;resizable=0;points=[];autosize=1;strokeColor=none;fillColor=none;" vertex="1" parent="WIyWlLk6GJQsqaUBKTNV-1">
          <mxGeometry x="450" y="858" width="80" height="30" as="geometry" />
        </mxCell>
        <mxCell id="eNe1x3plQGJJe2NbH0Jp-68" style="edgeStyle=orthogonalEdgeStyle;rounded=0;orthogonalLoop=1;jettySize=auto;html=1;" edge="1" parent="WIyWlLk6GJQsqaUBKTNV-1" source="eNe1x3plQGJJe2NbH0Jp-65" target="eNe1x3plQGJJe2NbH0Jp-67">
          <mxGeometry relative="1" as="geometry" />
        </mxCell>
        <mxCell id="eNe1x3plQGJJe2NbH0Jp-70" style="edgeStyle=orthogonalEdgeStyle;rounded=0;orthogonalLoop=1;jettySize=auto;html=1;" edge="1" parent="WIyWlLk6GJQsqaUBKTNV-1" source="eNe1x3plQGJJe2NbH0Jp-65" target="eNe1x3plQGJJe2NbH0Jp-69">
          <mxGeometry relative="1" as="geometry" />
        </mxCell>
        <mxCell id="eNe1x3plQGJJe2NbH0Jp-65" value="Tiempo&amp;nbsp;&lt;div&gt;ojo derecho&lt;div&gt;cerrado&lt;/div&gt;&lt;/div&gt;" style="rhombus;whiteSpace=wrap;html=1;shadow=0;fontFamily=Helvetica;fontSize=12;align=center;strokeWidth=1;spacing=6;spacingTop=-4;" vertex="1" parent="WIyWlLk6GJQsqaUBKTNV-1">
          <mxGeometry x="545" y="1160" width="100" height="80" as="geometry" />
        </mxCell>
        <mxCell id="eNe1x3plQGJJe2NbH0Jp-75" style="edgeStyle=orthogonalEdgeStyle;rounded=0;orthogonalLoop=1;jettySize=auto;html=1;" edge="1" parent="WIyWlLk6GJQsqaUBKTNV-1" source="eNe1x3plQGJJe2NbH0Jp-67" target="WIyWlLk6GJQsqaUBKTNV-3">
          <mxGeometry relative="1" as="geometry">
            <Array as="points">
              <mxPoint x="-360" y="1330" />
              <mxPoint x="-360" y="150" />
            </Array>
          </mxGeometry>
        </mxCell>
        <mxCell id="eNe1x3plQGJJe2NbH0Jp-67" value="Hacer clic izquierdo" style="rounded=1;whiteSpace=wrap;html=1;fontSize=12;glass=0;strokeWidth=1;shadow=0;" vertex="1" parent="WIyWlLk6GJQsqaUBKTNV-1">
          <mxGeometry x="380" y="1310" width="120" height="40" as="geometry" />
        </mxCell>
        <mxCell id="eNe1x3plQGJJe2NbH0Jp-74" style="edgeStyle=orthogonalEdgeStyle;rounded=0;orthogonalLoop=1;jettySize=auto;html=1;" edge="1" parent="WIyWlLk6GJQsqaUBKTNV-1" source="eNe1x3plQGJJe2NbH0Jp-69" target="WIyWlLk6GJQsqaUBKTNV-3">
          <mxGeometry relative="1" as="geometry">
            <Array as="points">
              <mxPoint x="1400" y="1330" />
              <mxPoint x="1400" y="150" />
            </Array>
          </mxGeometry>
        </mxCell>
        <mxCell id="eNe1x3plQGJJe2NbH0Jp-69" value="Hacer clic derecho" style="rounded=1;whiteSpace=wrap;html=1;fontSize=12;glass=0;strokeWidth=1;shadow=0;" vertex="1" parent="WIyWlLk6GJQsqaUBKTNV-1">
          <mxGeometry x="700" y="1310" width="120" height="40" as="geometry" />
        </mxCell>
        <mxCell id="eNe1x3plQGJJe2NbH0Jp-71" value="Menos de 1 segundo" style="text;html=1;align=center;verticalAlign=middle;resizable=0;points=[];autosize=1;strokeColor=none;fillColor=none;" vertex="1" parent="WIyWlLk6GJQsqaUBKTNV-1">
          <mxGeometry x="417" y="1176" width="140" height="30" as="geometry" />
        </mxCell>
        <mxCell id="eNe1x3plQGJJe2NbH0Jp-72" value="M谩s de 1 segundo" style="text;html=1;align=center;verticalAlign=middle;resizable=0;points=[];autosize=1;strokeColor=none;fillColor=none;" vertex="1" parent="WIyWlLk6GJQsqaUBKTNV-1">
          <mxGeometry x="637" y="1176" width="120" height="30" as="geometry" />
        </mxCell>
      </root>
    </mxGraphModel>
  </diagram>
</mxfile>
